<svg xmlns="http://www.w3.org/2000/svg" width="820" height="220" viewBox="0 0 820 220" fill="none">
  <defs>
    <linearGradient id="leaf" x1="64" y1="44" x2="164" y2="176" gradientUnits="userSpaceOnUse">
      <stop stop-color="#10B981"/>
      <stop offset="0.55" stop-color="#22C55E"/>
      <stop offset="1" stop-color="#059669"/>
    </linearGradient>
    <linearGradient id="ring" x1="44" y1="32" x2="188" y2="188" gradientUnits="userSpaceOnUse">
      <stop stop-color="rgba(34,197,94,0.55)"/>
      <stop offset="1" stop-color="rgba(16,185,129,0.55)"/>
    </linearGradient>
    <filter id="shadow" x="0" y="0" width="240" height="240" filterUnits="userSpaceOnUse" color-interpolation-filters="sRGB">
      <feFlood flood-opacity="0" result="BackgroundImageFix"/>
      <feColorMatrix in="SourceAlpha" type="matrix" values="0 0 0 0 0 0 0 0 0 0 0 0 0 0 0 0 0 0 127 0" result="hardAlpha"/>
      <feOffset dy="10"/>
      <feGaussianBlur stdDeviation="12"/>
      <feColorMatrix type="matrix" values="0 0 0 0 0.00784314 0 0 0 0 0.0235294 0 0 0 0 0.0901961 0 0 0 0.18 0"/>
      <feBlend mode="normal" in2="BackgroundImageFix" result="effect1_dropShadow"/>
      <feBlend mode="normal" in="SourceGraphic" in2="effect1_dropShadow" result="shape"/>
    </filter>
  </defs>

  <!-- Mark -->
  <g filter="url(#shadow)" transform="translate(30,10)">
    <rect x="0" y="0" width="200" height="200" rx="56" fill="url(#leaf)"/>
    <!-- scan ring -->
    <circle cx="100" cy="100" r="66" stroke="url(#ring)" stroke-width="10"/>
    <path d="M142 63c-27 .9-49.5 10.9-65 28.8-15.2 17.5-21.9 40-20.3 64.2 24.7 1.7 47.1-5 64.6-20.2C131 112.3 141.1 90 142 63Z" fill="rgba(2,6,23,0.72)"/>
    <path d="M75 134c20.2-17 41.4-27.6 64.6-31.4" stroke="rgba(248,250,252,0.78)" stroke-width="8" stroke-linecap="round"/>
  </g>

  <!-- Wordmark -->
  <g transform="translate(270,78)">
    <text x="0" y="48" font-family="system-ui, -apple-system, Segoe UI, Roboto, Arial" font-size="56" font-weight="700" letter-spacing="-1.2" fill="#0F172A">
      LeafDetect
    </text>
    <text x="2" y="82" font-family="system-ui, -apple-system, Segoe UI, Roboto, Arial" font-size="18" font-weight="500" fill="#475569">
      Scan. Diagnose. Treat.
    </text>
  </g>
</svg>

